# xmcd
#
# Track frame offsets:
#	150
#	16663
#	44515
#	68458
#
# Disc length: 1131 seconds
#
# Revision: 0
# Processed by: cddbd v1.5.2PL0 Copyright (c) Steve Scherf et al.
# Submitted via: EasyCDDAExtractor 11.5.0.1
#
DISCID=25046904
DTITLE=Al Jones - Whatever It Takes [CD Single)
DYEAR=1995
DGENRE=R&B
TTITLE0=Whatever It Takes (Radio Edit)
TTITLE1=Whatever It Takes (Instrumental)
TTITLE2=Whatever it Takes (A Capella)
TTITLE3=Whatever it Takes (No Talk Edit)
EXTD=
EXTT0=
EXTT1=
EXTT2=
EXTT3=
PLAYORDER=
